<svg xmlns="http://www.w3.org/2000/svg" width="600" height="400" viewBox="0 0 600 400"><rect width="100%" height="100%" fill="#DDDDDD"/><path fill="#999999" d="M150.07 179.385h6.87v41.93h-4q-.93 0-1.55-.3-.62-.31-1.2-1.03l-21.9-27.96q.18 1.91.18 3.54v25.75h-6.88v-41.93h4.09q.5 0 .86.04t.64.17q.27.13.53.38t.58.65l21.98 28.07q-.08-1.01-.14-2-.06-.98-.06-1.82zm28.25 11.71q3.3 0 6.02 1.07 2.71 1.08 4.64 3.05 1.92 1.97 2.97 4.81 1.04 2.85 1.04 6.35 0 3.54-1.04 6.39-1.05 2.84-2.97 4.84-1.93 2-4.64 3.07-2.72 1.07-6.02 1.07-3.34 0-6.06-1.07-2.73-1.07-4.66-3.07t-2.98-4.84q-1.06-2.85-1.06-6.39 0-3.5 1.06-6.35 1.05-2.84 2.98-4.81t4.66-3.05q2.72-1.07 6.06-1.07m0 25.14q3.71 0 5.49-2.49 1.79-2.49 1.79-7.31 0-4.81-1.79-7.33-1.78-2.53-5.49-2.53-3.77 0-5.58 2.54-1.82 2.54-1.82 7.32 0 4.79 1.82 7.3 1.81 2.5 5.58 2.5m64.67-36.85v6.41h-12.65v35.52h-7.8v-35.52H209.9v-6.41zm11.54-1.16v16.53q1.74-1.63 3.83-2.64 2.09-1.02 4.9-1.02 2.43 0 4.32.83 1.88.82 3.15 2.32 1.26 1.49 1.91 3.57.65 2.07.65 4.56v18.94h-7.16v-18.94q0-2.72-1.25-4.22-1.24-1.49-3.8-1.49-1.85 0-3.48.84-1.62.84-3.07 2.29v21.52h-7.16v-43.09zm44.02 13.34h7.16v29.75h-4.37q-1.43 0-1.8-1.31l-.5-2.37q-1.82 1.85-4.03 3-2.2 1.14-5.19 1.14-2.43 0-4.3-.82-1.87-.83-3.15-2.34t-1.93-3.58-.65-4.57v-18.9h7.16v18.9q0 2.73 1.26 4.22 1.26 1.5 3.79 1.5 1.85 0 3.48-.83 1.62-.83 3.07-2.28zm21.4 29.75h-7.16v-29.75h4.38q1.39 0 1.83 1.3l.46 2.2q.78-.87 1.64-1.59.85-.73 1.83-1.25.97-.52 2.08-.82 1.12-.31 2.45-.31 2.82 0 4.63 1.52 1.81 1.53 2.71 4.05.7-1.48 1.74-2.54 1.05-1.06 2.29-1.72 1.25-.67 2.66-.99 1.4-.32 2.82-.32 2.47 0 4.38.76 1.92.75 3.22 2.2 1.31 1.45 1.99 3.54t.68 4.78v18.94h-7.16v-18.94q0-2.84-1.25-4.27-1.25-1.44-3.65-1.44-1.11 0-2.05.38-.94.37-1.65 1.08t-1.12 1.79q-.4 1.07-.4 2.46v18.94h-7.2v-18.94q0-2.98-1.2-4.35-1.2-1.36-3.52-1.36-1.57 0-2.92.77t-2.51 2.1zm48.58-21.05v13.34q1.22 1.47 2.65 2.08 1.44.61 3.03.61 1.66 0 2.98-.59 1.31-.6 2.24-1.86t1.42-3.22q.5-1.95.5-4.68 0-4.9-1.63-7.09-1.62-2.19-4.67-2.19-2.06 0-3.59.94-1.54.94-2.93 2.66m0-22.04v16.99q1.8-1.89 3.99-3 2.19-1.12 5-1.12 2.58 0 4.65 1.02 2.08 1.01 3.54 2.91 1.47 1.9 2.25 4.6.78 2.69.78 6.06 0 3.62-.9 6.58t-2.56 5.06q-1.67 2.1-4.02 3.26t-5.22 1.16q-1.39 0-2.52-.27-1.13-.28-2.09-.77t-1.76-1.2q-.79-.71-1.52-1.58l-.32 2q-.17.75-.59 1.07t-1.15.32h-4.72v-43.09zm31.96 14.64.49 2.35q.9-.9 1.9-1.67t2.12-1.3q1.11-.54 2.39-.84 1.27-.31 2.78-.31 2.44 0 4.32.83 1.89.82 3.15 2.32 1.26 1.49 1.91 3.57.66 2.07.66 4.56v18.94h-7.17v-18.94q0-2.72-1.24-4.22-1.25-1.49-3.8-1.49-1.86 0-3.48.84-1.63.84-3.08 2.29v21.52h-7.16v-29.75h4.38q1.39 0 1.83 1.3m42.22 20.76v-5.01q-3.1.14-5.22.53-2.12.4-3.39 1-1.28.61-1.83 1.43-.55.81-.55 1.76 0 1.89 1.12 2.7 1.11.81 2.91.81 2.2 0 3.81-.79 1.61-.8 3.15-2.43m-15.14-15.63-1.27-2.29q5.13-4.7 12.35-4.7 2.61 0 4.67.86t3.48 2.38 2.16 3.64q.74 2.11.74 4.64v18.79h-3.25q-1.01 0-1.56-.3-.56-.31-.87-1.24l-.64-2.14q-1.13 1.01-2.21 1.78-1.07.77-2.23 1.29t-2.48.8q-1.32.27-2.91.27-1.89 0-3.48-.5-1.6-.51-2.76-1.53-1.16-1.01-1.8-2.52-.63-1.51-.63-3.51 0-1.13.37-2.25.38-1.11 1.24-2.13.85-1.01 2.21-1.91 1.37-.9 3.35-1.57 1.99-.66 4.63-1.08t6.03-.51v-1.74q0-2.99-1.28-4.42-1.27-1.44-3.68-1.44-1.74 0-2.88.41-1.15.4-2.02.91t-1.58.91q-.71.41-1.58.41-.75 0-1.28-.39-.52-.39-.84-.92m29.09-6.43h7.19v29.75h-7.19zm8.18-8.68q0 .93-.38 1.74-.38.82-1 1.43-.62.6-1.46.97-.85.36-1.8.36-.93 0-1.76-.36-.82-.37-1.43-.97-.61-.61-.97-1.43-.37-.81-.37-1.74 0-.95.37-1.79.36-.84.97-1.45t1.43-.97q.83-.37 1.76-.37.95 0 1.8.37.84.36 1.46.97t1 1.45.38 1.79m6.41-4.66h7.16v43.09h-7.16z"/></svg>